<?xml version="1.0" ?><svg viewBox="0 0 512 512" xmlns="http://www.w3.org/2000/svg"><defs><style>.cls-1{fill:#a5c7e9;}.cls-2{fill:#3f6db5;}</style></defs><g data-name="Layer 3" id="Layer_3"><path class="cls-1" d="M354.34,268.18A68.64,68.64,0,1,0,279.13,169a81.5,81.5,0,0,1,15.16,8.32,84.17,84.17,0,0,1,21.59,22A97.34,97.34,0,0,0,141.2,258.4c0,1.15,0,2.3.07,3.44A68.64,68.64,0,0,0,60.06,366.93L367.55,366a68.65,68.65,0,0,0-31.7-105.57c0-.68,0-1.36,0-2,0-.3,0-.61,0-.92l11.53,5Z"/></g><g id="Outline"><path class="cls-2" d="M338.91,102.13A7.09,7.09,0,0,0,346,95V72.68a7.09,7.09,0,1,0-14.17,0V95A7.09,7.09,0,0,0,338.91,102.13Z"/><path class="cls-2" d="M467.51,194H445a7.09,7.09,0,1,0,0,14.17h22.55a7.09,7.09,0,1,0,0-14.17Z"/><path class="cls-2" d="M413.9,133.19a7,7,0,0,0,5-2.08L450.8,99.22a7.09,7.09,0,0,0-10-10l-31.89,31.89a7.09,7.09,0,0,0,5,12.1Z"/><path class="cls-2" d="M408.89,271.06a7.08,7.08,0,0,0,0,10L440.78,313a7.09,7.09,0,0,0,10-10l-31.89-31.89A7.08,7.08,0,0,0,408.89,271.06Z"/><path class="cls-2" d="M258.92,131.11a7.09,7.09,0,1,0,10-10L237.05,89.2a7.09,7.09,0,0,0-10,10Z"/><path class="cls-2" d="M458.72,360H378.59A75.68,75.68,0,0,0,365,268.39,75.78,75.78,0,0,0,406.41,167.7a7.09,7.09,0,0,0-13,5.68,61.61,61.61,0,0,1-41.16,84.26,5.89,5.89,0,0,0-.95.32,75.35,75.35,0,0,0-11.78-5.7,104.47,104.47,0,0,0-54.17-87.75,61.56,61.56,0,0,1,95.16-10,7.09,7.09,0,0,0,10-10,75.72,75.72,0,0,0-118.19,14.11,102,102,0,0,0-35.86-6.47c-54.49,0-99.24,43-102.89,97.15a75.7,75.7,0,0,0-83,111.22,7.09,7.09,0,0,0,2.66,13.66H458.72a7.09,7.09,0,1,0,0-14.17ZM116.4,261.46A61.2,61.2,0,0,1,138,265.34a9.18,9.18,0,0,0,9.57-8.94c0-49.69,39.9-90.13,89-90.13,46,0,84.52,36.28,88.59,82.06A75.71,75.71,0,0,0,236.8,323,7.09,7.09,0,0,0,251,323a61.54,61.54,0,1,1,110.74,37H67.19a60.88,60.88,0,0,1-12.34-37A61.61,61.61,0,0,1,116.4,261.46Z"/><path class="cls-2" d="M369.36,396.56h-.06l-48.79.44a7.09,7.09,0,0,0,.07,14.17h.06l48.78-.44a7.09,7.09,0,0,0-.06-14.17Z"/><path class="cls-2" d="M187.39,411l80.44-.26a7.09,7.09,0,0,0,0-14.17h0l-80.43.26a7.09,7.09,0,0,0,0,14.17Z"/><path class="cls-2" d="M150,396.94h0l-17.26.05a7.09,7.09,0,0,0,0,14.18h0l17.26-.06a7.09,7.09,0,0,0,0-14.17Z"/><path class="cls-2" d="M325.38,434l-135.11-.44h0a7.09,7.09,0,0,0,0,14.18l135.11.44h0a7.09,7.09,0,0,0,0-14.18Z"/></g></svg>