<?xml version="1.0" ?>
<svg height="400px" version="1.1" viewBox="0 0 400 400" width="400px"
    xmlns="http://www.w3.org/2000/svg"
    xmlns:xlink="http://www.w3.org/1999/xlink">
    <title/>
    <desc/>
    <defs>
        <path d="M190,280 L210,280 C210,296.568542 196.568542,310 180,310 C163.431458,310 150,296.568542 150,280 L170,280 C170,285.522847 174.477153,290 180,290 C185.522847,290 190,285.522847 190,280 L190,280 L190,280 Z M190,150 L210,150 L210,280 L190,280 L190,150 L190,150 L190,150 Z" id="path-1"/>
        <filter filterUnits="objectBoundingBox" height="200%" id="filter-2" width="200%" x="-50%" y="-50%">
            <feOffset dx="0" dy="4" in="SourceAlpha" result="shadowOffsetOuter1"/>
            <feGaussianBlur in="shadowOffsetOuter1" result="shadowBlurOuter1" stdDeviation="2"/>
            <feColorMatrix in="shadowBlurOuter1" type="matrix" values="0 0 0 0 0   0 0 0 0 0   0 0 0 0 0  0 0 0 0.5 0"/>
        </filter>
        <path d="M320,200 C320,133.72583 266.27417,80 200,80 C133.72583,80 80,133.72583 80,200 C80,177.90861 97.90861,160 120,160 C142.09139,160 160,177.90861 160,200 C160,177.90861 177.90861,160 200,160 C222.09139,160 240,177.90861 240,200 C240,177.90861 257.90861,160 280,160 C302.09139,160 320,177.90861 320,200 L320,200 Z" id="path-3"/>
        <filter filterUnits="objectBoundingBox" height="200%" id="filter-4" width="200%" x="-50%" y="-50%">
            <feOffset dx="0" dy="4" in="SourceAlpha" result="shadowOffsetOuter1"/>
            <feGaussianBlur in="shadowOffsetOuter1" result="shadowBlurOuter1" stdDeviation="2"/>
            <feColorMatrix in="shadowBlurOuter1" type="matrix" values="0 0 0 0 0   0 0 0 0 0   0 0 0 0 0  0 0 0 0.5 0"/>
        </filter>
    </defs>
    <g fill="none" fill-rule="evenodd" id="Page-1" stroke="none" stroke-width="1">
        <g id="umbrella">
            <path d="M200,400 C310.45695,400 400,310.45695 400,200 C400,89.54305 310.45695,0 200,0 C89.54305,0 0,89.54305 0,200 C0,310.45695 89.54305,400 200,400 Z" fill="#AAD8B0" id="Oval-6"/>
            <g id="Combined-Shape">
                <use fill="black" fill-opacity="1" filter="url(#filter-2)" xlink:href="#path-1"/>
                <use fill="#697F9B" fill-rule="evenodd" xlink:href="#path-1"/>
            </g>
            <g id="Combined-Shape">
                <use fill="black" fill-opacity="1" filter="url(#filter-4)" xlink:href="#path-3"/>
                <use fill="#67ADD5" fill-rule="evenodd" xlink:href="#path-3"/>
            </g>
        </g>
    </g>
</svg>